<mxfile host="app.diagrams.net" modified="2020-09-15T22:21:30.796Z" agent="5.0 (Windows NT 10.0; Win64; x64) AppleWebKit/537.36 (KHTML, like Gecko) Chrome/85.0.4183.102 Safari/537.36" etag="BfpaLdvI-XgEz77srw3q" version="13.7.1" type="github" pages="2">
  <diagram id="v70nW824M8R4AOz3LLfw" name="OrderEntry">
    <mxGraphModel dx="2553" dy="782" grid="1" gridSize="11" guides="1" tooltips="1" connect="1" arrows="1" fold="1" page="1" pageScale="1" pageWidth="850" pageHeight="1100" math="0" shadow="0">
      <root>
        <mxCell id="0" />
        <mxCell id="1" parent="0" />
        <mxCell id="3Qp2xXLN1smk-MfCKVBW-4" value="" style="edgeStyle=orthogonalEdgeStyle;rounded=0;orthogonalLoop=1;jettySize=auto;html=1;" parent="1" source="3Qp2xXLN1smk-MfCKVBW-2" target="3Qp2xXLN1smk-MfCKVBW-3" edge="1">
          <mxGeometry relative="1" as="geometry" />
        </mxCell>
        <mxCell id="jS5UeziIzz8t74J8Ag5z-24" style="edgeStyle=orthogonalEdgeStyle;rounded=0;orthogonalLoop=1;jettySize=auto;html=1;fontSize=13;fontColor=#000000;" parent="1" source="3Qp2xXLN1smk-MfCKVBW-2" target="jS5UeziIzz8t74J8Ag5z-3" edge="1">
          <mxGeometry relative="1" as="geometry" />
        </mxCell>
        <mxCell id="3Qp2xXLN1smk-MfCKVBW-2" value="&lt;font style=&quot;font-size: 14px&quot;&gt;Cliente&lt;/font&gt;" style="rounded=1;whiteSpace=wrap;html=1;fillColor=#dae8fc;strokeColor=#6c8ebf;fontSize=13;" parent="1" vertex="1">
          <mxGeometry y="210" width="120" height="60" as="geometry" />
        </mxCell>
        <mxCell id="3Qp2xXLN1smk-MfCKVBW-7" style="edgeStyle=orthogonalEdgeStyle;rounded=0;orthogonalLoop=1;jettySize=auto;html=1;entryX=0.5;entryY=0;entryDx=0;entryDy=0;" parent="1" source="3Qp2xXLN1smk-MfCKVBW-3" target="3Qp2xXLN1smk-MfCKVBW-5" edge="1">
          <mxGeometry relative="1" as="geometry" />
        </mxCell>
        <mxCell id="3Qp2xXLN1smk-MfCKVBW-3" value="&lt;font style=&quot;font-size: 14px&quot;&gt;Seleciona&lt;br&gt;UF/Cidade&lt;/font&gt;" style="shape=trapezoid;perimeter=trapezoidPerimeter;whiteSpace=wrap;html=1;fixedSize=1;rounded=1;fillColor=#f0a30a;strokeColor=#BD7000;fontColor=#ffffff;" parent="1" vertex="1">
          <mxGeometry x="320" y="210" width="120" height="60" as="geometry" />
        </mxCell>
        <mxCell id="3Qp2xXLN1smk-MfCKVBW-10" value="" style="edgeStyle=orthogonalEdgeStyle;rounded=0;orthogonalLoop=1;jettySize=auto;html=1;" parent="1" source="3Qp2xXLN1smk-MfCKVBW-5" target="3Qp2xXLN1smk-MfCKVBW-9" edge="1">
          <mxGeometry relative="1" as="geometry" />
        </mxCell>
        <mxCell id="3Qp2xXLN1smk-MfCKVBW-14" value="" style="edgeStyle=orthogonalEdgeStyle;rounded=0;orthogonalLoop=1;jettySize=auto;html=1;" parent="1" source="3Qp2xXLN1smk-MfCKVBW-5" target="3Qp2xXLN1smk-MfCKVBW-13" edge="1">
          <mxGeometry relative="1" as="geometry" />
        </mxCell>
        <mxCell id="3Qp2xXLN1smk-MfCKVBW-5" value="&lt;font style=&quot;font-size: 14px&quot;&gt;&lt;b&gt;Cidade &lt;br&gt;sem Frete&lt;/b&gt;&lt;/font&gt;" style="rhombus;whiteSpace=wrap;html=1;" parent="1" vertex="1">
          <mxGeometry x="315" y="320" width="130" height="90" as="geometry" />
        </mxCell>
        <mxCell id="3Qp2xXLN1smk-MfCKVBW-9" value="&lt;font style=&quot;font-size: 14px&quot;&gt;Redirecionar para Centro de Controle de Leads&lt;/font&gt;" style="whiteSpace=wrap;html=1;fillColor=#dae8fc;strokeColor=#6c8ebf;" parent="1" vertex="1">
          <mxGeometry x="530" y="335" width="190" height="60" as="geometry" />
        </mxCell>
        <mxCell id="3Qp2xXLN1smk-MfCKVBW-12" value="&lt;div&gt;1. Mostrar mensagem de produtos indisponíveis para a região.&lt;/div&gt;&lt;div&gt;2. Registrar casos de cidades sem frete/abrir ticket no SNOW&lt;/div&gt;" style="text;html=1;fillColor=none;align=center;verticalAlign=middle;whiteSpace=wrap;rounded=0;fontStyle=1;strokeColor=#000000;" parent="1" vertex="1">
          <mxGeometry x="530" y="275" width="420" height="45" as="geometry" />
        </mxCell>
        <mxCell id="jS5UeziIzz8t74J8Ag5z-2" value="" style="edgeStyle=orthogonalEdgeStyle;rounded=0;orthogonalLoop=1;jettySize=auto;html=1;fontSize=13;fontColor=#000000;" parent="1" source="3Qp2xXLN1smk-MfCKVBW-13" target="jS5UeziIzz8t74J8Ag5z-1" edge="1">
          <mxGeometry relative="1" as="geometry" />
        </mxCell>
        <mxCell id="jS5UeziIzz8t74J8Ag5z-4" value="" style="edgeStyle=orthogonalEdgeStyle;rounded=0;orthogonalLoop=1;jettySize=auto;html=1;fontSize=13;fontColor=#000000;exitX=0;exitY=0.5;exitDx=0;exitDy=0;entryX=1;entryY=0.5;entryDx=0;entryDy=0;" parent="1" source="jS5UeziIzz8t74J8Ag5z-1" target="jS5UeziIzz8t74J8Ag5z-3" edge="1">
          <mxGeometry relative="1" as="geometry" />
        </mxCell>
        <mxCell id="jS5UeziIzz8t74J8Ag5z-32" value="" style="edgeStyle=orthogonalEdgeStyle;rounded=0;orthogonalLoop=1;jettySize=auto;html=1;fontSize=13;fontColor=#000000;" parent="1" source="3Qp2xXLN1smk-MfCKVBW-13" target="jS5UeziIzz8t74J8Ag5z-31" edge="1">
          <mxGeometry relative="1" as="geometry" />
        </mxCell>
        <mxCell id="3Qp2xXLN1smk-MfCKVBW-13" value="&lt;p style=&quot;margin-top: 0pt ; margin-bottom: 0pt ; margin-left: 0in ; text-indent: 0in&quot;&gt;&lt;span style=&quot;font-family: &amp;#34;calibri&amp;#34;&quot;&gt;&lt;font style=&quot;font-size: 12px&quot;&gt;Navegação em Produtos:&lt;/font&gt;&lt;/span&gt;&lt;/p&gt;&lt;p style=&quot;margin-top: 0pt ; margin-bottom: 0pt ; margin-left: 0in ; text-indent: 0in&quot;&gt;&lt;font style=&quot;font-size: 12px&quot;&gt;&lt;span style=&quot;font-family: &amp;#34;calibri&amp;#34;&quot;&gt;Add&lt;/span&gt;&lt;span style=&quot;font-family: &amp;#34;calibri&amp;#34; ; vertical-align: baseline&quot;&gt; Carrinho --&amp;gt; Ajustar Quantidades&lt;/span&gt;&lt;span style=&quot;font-family: &amp;#34;calibri&amp;#34;&quot;&gt;&lt;br&gt;&lt;br&gt;&lt;/span&gt;&lt;span style=&quot;font-family: &amp;#34;calibri&amp;#34;&quot;&gt;(Preço Padrão *ver impostos )&lt;/span&gt;&lt;/font&gt;&lt;/p&gt;" style="whiteSpace=wrap;html=1;fillColor=#dae8fc;strokeColor=#6c8ebf;fontStyle=0" parent="1" vertex="1">
          <mxGeometry x="210" y="465" width="340" height="85" as="geometry" />
        </mxCell>
        <mxCell id="jS5UeziIzz8t74J8Ag5z-1" value="Checkout&lt;br&gt;(Comprar Produto)" style="whiteSpace=wrap;html=1;fontStyle=0;strokeColor=#6c8ebf;fillColor=#dae8fc;" parent="1" vertex="1">
          <mxGeometry x="320" y="642.5" width="120" height="60" as="geometry" />
        </mxCell>
        <mxCell id="jS5UeziIzz8t74J8Ag5z-6" value="" style="edgeStyle=orthogonalEdgeStyle;rounded=0;orthogonalLoop=1;jettySize=auto;html=1;fontSize=13;fontColor=#000000;" parent="1" source="jS5UeziIzz8t74J8Ag5z-3" target="jS5UeziIzz8t74J8Ag5z-5" edge="1">
          <mxGeometry relative="1" as="geometry" />
        </mxCell>
        <mxCell id="jS5UeziIzz8t74J8Ag5z-26" value="" style="edgeStyle=orthogonalEdgeStyle;rounded=0;orthogonalLoop=1;jettySize=auto;html=1;fontSize=13;fontColor=#000000;exitX=0.5;exitY=1;exitDx=0;exitDy=0;entryX=0;entryY=0.5;entryDx=0;entryDy=0;" parent="1" source="jS5UeziIzz8t74J8Ag5z-3" target="jS5UeziIzz8t74J8Ag5z-25" edge="1">
          <mxGeometry relative="1" as="geometry" />
        </mxCell>
        <mxCell id="jS5UeziIzz8t74J8Ag5z-3" value="Autentica/Cadastra Cliente&lt;br&gt;(API Economy)" style="whiteSpace=wrap;html=1;fontStyle=0;strokeColor=#6c8ebf;fillColor=#dae8fc;" parent="1" vertex="1">
          <mxGeometry y="642.5" width="120" height="60" as="geometry" />
        </mxCell>
        <mxCell id="jS5UeziIzz8t74J8Ag5z-8" value="" style="edgeStyle=orthogonalEdgeStyle;rounded=0;orthogonalLoop=1;jettySize=auto;html=1;fontSize=13;fontColor=#000000;" parent="1" source="jS5UeziIzz8t74J8Ag5z-5" target="jS5UeziIzz8t74J8Ag5z-7" edge="1">
          <mxGeometry relative="1" as="geometry" />
        </mxCell>
        <mxCell id="jS5UeziIzz8t74J8Ag5z-5" value="Histórico de Pedidos" style="whiteSpace=wrap;html=1;fontStyle=0;strokeColor=#6c8ebf;fillColor=#dae8fc;" parent="1" vertex="1">
          <mxGeometry x="-317" y="642.5" width="120" height="60" as="geometry" />
        </mxCell>
        <mxCell id="jS5UeziIzz8t74J8Ag5z-10" value="" style="edgeStyle=orthogonalEdgeStyle;rounded=0;orthogonalLoop=1;jettySize=auto;html=1;fontSize=13;fontColor=#000000;" parent="1" source="jS5UeziIzz8t74J8Ag5z-7" target="jS5UeziIzz8t74J8Ag5z-9" edge="1">
          <mxGeometry relative="1" as="geometry" />
        </mxCell>
        <mxCell id="jS5UeziIzz8t74J8Ag5z-34" value="" style="edgeStyle=orthogonalEdgeStyle;rounded=0;orthogonalLoop=1;jettySize=auto;html=1;fontSize=13;fontColor=#000000;" parent="1" source="jS5UeziIzz8t74J8Ag5z-7" target="jS5UeziIzz8t74J8Ag5z-33" edge="1">
          <mxGeometry relative="1" as="geometry" />
        </mxCell>
        <mxCell id="jS5UeziIzz8t74J8Ag5z-7" value="Meus Pedidos Online" style="whiteSpace=wrap;html=1;fontStyle=0;strokeColor=#6c8ebf;fillColor=#dae8fc;" parent="1" vertex="1">
          <mxGeometry x="-317" y="782.5" width="120" height="60" as="geometry" />
        </mxCell>
        <mxCell id="jS5UeziIzz8t74J8Ag5z-12" value="" style="edgeStyle=orthogonalEdgeStyle;rounded=0;orthogonalLoop=1;jettySize=auto;html=1;fontSize=13;fontColor=#000000;" parent="1" source="jS5UeziIzz8t74J8Ag5z-9" target="jS5UeziIzz8t74J8Ag5z-11" edge="1">
          <mxGeometry relative="1" as="geometry" />
        </mxCell>
        <mxCell id="jS5UeziIzz8t74J8Ag5z-14" value="" style="edgeStyle=orthogonalEdgeStyle;rounded=0;orthogonalLoop=1;jettySize=auto;html=1;fontSize=13;fontColor=#000000;" parent="1" source="jS5UeziIzz8t74J8Ag5z-9" target="jS5UeziIzz8t74J8Ag5z-13" edge="1">
          <mxGeometry relative="1" as="geometry" />
        </mxCell>
        <mxCell id="jS5UeziIzz8t74J8Ag5z-19" value="" style="edgeStyle=orthogonalEdgeStyle;rounded=0;orthogonalLoop=1;jettySize=auto;html=1;fontSize=13;fontColor=#000000;" parent="1" source="jS5UeziIzz8t74J8Ag5z-9" target="jS5UeziIzz8t74J8Ag5z-18" edge="1">
          <mxGeometry relative="1" as="geometry" />
        </mxCell>
        <mxCell id="jS5UeziIzz8t74J8Ag5z-9" value="Visualizar Pedido" style="whiteSpace=wrap;html=1;fontStyle=0;strokeColor=#6c8ebf;fillColor=#dae8fc;" parent="1" vertex="1">
          <mxGeometry x="-317" y="922.5" width="120" height="60" as="geometry" />
        </mxCell>
        <mxCell id="jS5UeziIzz8t74J8Ag5z-11" value="Imprimir Segunda Via" style="whiteSpace=wrap;html=1;fontStyle=0;strokeColor=#6c8ebf;fillColor=#dae8fc;" parent="1" vertex="1">
          <mxGeometry x="-517" y="922.5" width="120" height="60" as="geometry" />
        </mxCell>
        <mxCell id="jS5UeziIzz8t74J8Ag5z-13" value="Status do Pedido" style="whiteSpace=wrap;html=1;fontStyle=0;strokeColor=#6c8ebf;fillColor=#dae8fc;" parent="1" vertex="1">
          <mxGeometry x="-317" y="1062.5" width="120" height="60" as="geometry" />
        </mxCell>
        <mxCell id="jS5UeziIzz8t74J8Ag5z-18" value="Cancelamento&lt;br&gt;(verificar com Jurídico)" style="whiteSpace=wrap;html=1;fontStyle=0;strokeColor=#6c8ebf;fillColor=#dae8fc;" parent="1" vertex="1">
          <mxGeometry x="-121" y="922.5" width="120" height="60" as="geometry" />
        </mxCell>
        <mxCell id="jS5UeziIzz8t74J8Ag5z-28" value="" style="edgeStyle=orthogonalEdgeStyle;rounded=0;orthogonalLoop=1;jettySize=auto;html=1;fontSize=13;fontColor=#000000;" parent="1" source="jS5UeziIzz8t74J8Ag5z-25" target="jS5UeziIzz8t74J8Ag5z-27" edge="1">
          <mxGeometry relative="1" as="geometry" />
        </mxCell>
        <mxCell id="jS5UeziIzz8t74J8Ag5z-36" value="" style="edgeStyle=orthogonalEdgeStyle;rounded=0;orthogonalLoop=1;jettySize=auto;html=1;fontSize=13;fontColor=#000000;" parent="1" source="jS5UeziIzz8t74J8Ag5z-25" target="jS5UeziIzz8t74J8Ag5z-35" edge="1">
          <mxGeometry relative="1" as="geometry" />
        </mxCell>
        <mxCell id="jS5UeziIzz8t74J8Ag5z-25" value="Ver carrinho e ajustar Pedido" style="whiteSpace=wrap;html=1;fontStyle=0;strokeColor=#6c8ebf;fillColor=#dae8fc;" parent="1" vertex="1">
          <mxGeometry x="310" y="781" width="154" height="61.5" as="geometry" />
        </mxCell>
        <mxCell id="jS5UeziIzz8t74J8Ag5z-27" value="* Forecast para quantidade está disponível em BI.&lt;br&gt;* Existe uma frente de cadastro no  SF.&lt;br&gt;* Não será considerado no MVP" style="whiteSpace=wrap;html=1;fontStyle=0;strokeColor=#C73500;fillColor=#fa6800;fontColor=#ffffff;align=left;spacingLeft=5;" parent="1" vertex="1">
          <mxGeometry x="572" y="781.75" width="297" height="60" as="geometry" />
        </mxCell>
        <mxCell id="jS5UeziIzz8t74J8Ag5z-31" value="&lt;div&gt;* Ver com Pricing uma lista de preços padrão com impostos já calculados.&lt;/div&gt;&lt;div&gt;* SKU: Utilizar o código do material SAP no gerenciamento dos produtos.&lt;/div&gt;" style="whiteSpace=wrap;html=1;fontStyle=0;strokeColor=#C73500;fillColor=#fa6800;fontColor=#ffffff;align=left;spacingLeft=5;" parent="1" vertex="1">
          <mxGeometry x="638" y="477.5" width="481" height="60" as="geometry" />
        </mxCell>
        <mxCell id="jS5UeziIzz8t74J8Ag5z-33" value="&lt;div&gt;MVP: DEFINIÇÃO: Trazer histórico de pedidos feitos em outras plataformas.&lt;/div&gt;&lt;div&gt;- Realizar sicronização ce pedidos com SAP: Baixa de pagamento e bloqueio.&lt;/div&gt;" style="whiteSpace=wrap;html=1;fontStyle=0;strokeColor=#C73500;fillColor=#fa6800;fontColor=#ffffff;" parent="1" vertex="1">
          <mxGeometry x="-836" y="782.5" width="439" height="60" as="geometry" />
        </mxCell>
        <mxCell id="jS5UeziIzz8t74J8Ag5z-39" value="" style="edgeStyle=orthogonalEdgeStyle;rounded=0;orthogonalLoop=1;jettySize=auto;html=1;fontSize=13;fontColor=#000000;" parent="1" source="jS5UeziIzz8t74J8Ag5z-35" target="jS5UeziIzz8t74J8Ag5z-38" edge="1">
          <mxGeometry relative="1" as="geometry" />
        </mxCell>
        <mxCell id="jS5UeziIzz8t74J8Ag5z-41" value="" style="edgeStyle=orthogonalEdgeStyle;rounded=0;orthogonalLoop=1;jettySize=auto;html=1;fontSize=13;fontColor=#000000;" parent="1" source="jS5UeziIzz8t74J8Ag5z-35" target="jS5UeziIzz8t74J8Ag5z-40" edge="1">
          <mxGeometry relative="1" as="geometry" />
        </mxCell>
        <mxCell id="jS5UeziIzz8t74J8Ag5z-35" value="Selecionar Embalagem&lt;br&gt;(Big Bag)" style="whiteSpace=wrap;html=1;fontStyle=0;strokeColor=#6c8ebf;fillColor=#dae8fc;" parent="1" vertex="1">
          <mxGeometry x="327" y="923.25" width="120" height="60" as="geometry" />
        </mxCell>
        <mxCell id="jS5UeziIzz8t74J8Ag5z-38" value="&lt;div&gt;* MVP: Mostra somente opção de Big Bag, preparando no futuro para novas opções.&lt;/div&gt;&lt;div&gt;* Ao alterar embalagem, será alterado o SKU.&lt;/div&gt;&lt;div&gt;* Tipo de embalagem está configurada na lista de preços.&lt;/div&gt;" style="whiteSpace=wrap;html=1;fontStyle=0;strokeColor=#C73500;fillColor=#fa6800;fontColor=#ffffff;align=left;spacingLeft=5;" parent="1" vertex="1">
          <mxGeometry x="572" y="923.25" width="473" height="60" as="geometry" />
        </mxCell>
        <mxCell id="jS5UeziIzz8t74J8Ag5z-43" value="" style="edgeStyle=orthogonalEdgeStyle;rounded=0;orthogonalLoop=1;jettySize=auto;html=1;fontSize=13;fontColor=#000000;" parent="1" source="jS5UeziIzz8t74J8Ag5z-40" target="jS5UeziIzz8t74J8Ag5z-42" edge="1">
          <mxGeometry relative="1" as="geometry" />
        </mxCell>
        <mxCell id="jS5UeziIzz8t74J8Ag5z-45" value="" style="edgeStyle=orthogonalEdgeStyle;rounded=0;orthogonalLoop=1;jettySize=auto;html=1;fontSize=13;fontColor=#000000;" parent="1" source="jS5UeziIzz8t74J8Ag5z-40" target="jS5UeziIzz8t74J8Ag5z-44" edge="1">
          <mxGeometry relative="1" as="geometry" />
        </mxCell>
        <mxCell id="jS5UeziIzz8t74J8Ag5z-40" value="Selecionar&lt;br&gt;DeliveryDate&lt;br&gt;(Pricing List)" style="whiteSpace=wrap;html=1;fontStyle=0;strokeColor=#6c8ebf;fillColor=#dae8fc;" parent="1" vertex="1">
          <mxGeometry x="299" y="1063.25" width="176" height="60" as="geometry" />
        </mxCell>
        <mxCell id="jS5UeziIzz8t74J8Ag5z-42" value="&lt;div&gt;* MVP: Permitir &quot;Delivery Date&quot;.&lt;/div&gt;&lt;div&gt;- ETA: Semana aproximada para o Delivery Date.&lt;/div&gt;&lt;div style=&quot;&quot;&gt;- DEFINIR: Não teremos &quot;Location&quot; para cada item do pedido no MVP.&lt;/div&gt;" style="whiteSpace=wrap;html=1;fontStyle=0;strokeColor=#C73500;fillColor=#fa6800;fontColor=#ffffff;align=left;spacingLeft=5;" parent="1" vertex="1">
          <mxGeometry x="572" y="1063.25" width="452" height="60" as="geometry" />
        </mxCell>
        <mxCell id="jS5UeziIzz8t74J8Ag5z-47" value="" style="edgeStyle=orthogonalEdgeStyle;rounded=0;orthogonalLoop=1;jettySize=auto;html=1;fontSize=13;fontColor=#000000;" parent="1" source="jS5UeziIzz8t74J8Ag5z-44" target="jS5UeziIzz8t74J8Ag5z-46" edge="1">
          <mxGeometry relative="1" as="geometry" />
        </mxCell>
        <mxCell id="jS5UeziIzz8t74J8Ag5z-49" style="edgeStyle=orthogonalEdgeStyle;rounded=0;orthogonalLoop=1;jettySize=auto;html=1;fontSize=13;fontColor=#000000;" parent="1" source="jS5UeziIzz8t74J8Ag5z-44" target="jS5UeziIzz8t74J8Ag5z-48" edge="1">
          <mxGeometry relative="1" as="geometry" />
        </mxCell>
        <mxCell id="jS5UeziIzz8t74J8Ag5z-44" value="Endereço de Entrega" style="whiteSpace=wrap;html=1;fontStyle=0;strokeColor=#6c8ebf;fillColor=#dae8fc;" parent="1" vertex="1">
          <mxGeometry x="294" y="1203.25" width="187" height="60" as="geometry" />
        </mxCell>
        <mxCell id="jS5UeziIzz8t74J8Ag5z-46" value="* Mostrar o Endereço de Pagamento como Padrão.&lt;br&gt;* Buscar da API Economy os endereços cadastrados e permitir novo endereço" style="whiteSpace=wrap;html=1;fontStyle=0;strokeColor=#C73500;fillColor=#fa6800;fontColor=#ffffff;align=left;spacingLeft=5;" parent="1" vertex="1">
          <mxGeometry x="572" y="1203.25" width="496" height="60" as="geometry" />
        </mxCell>
        <mxCell id="jS5UeziIzz8t74J8Ag5z-51" value="" style="edgeStyle=orthogonalEdgeStyle;rounded=0;orthogonalLoop=1;jettySize=auto;html=1;fontSize=13;fontColor=#000000;" parent="1" source="jS5UeziIzz8t74J8Ag5z-48" target="jS5UeziIzz8t74J8Ag5z-50" edge="1">
          <mxGeometry relative="1" as="geometry" />
        </mxCell>
        <mxCell id="jS5UeziIzz8t74J8Ag5z-53" value="" style="edgeStyle=orthogonalEdgeStyle;rounded=0;orthogonalLoop=1;jettySize=auto;html=1;fontSize=13;fontColor=#000000;exitX=0.5;exitY=1;exitDx=0;exitDy=0;entryX=0;entryY=0.5;entryDx=0;entryDy=0;" parent="1" source="jS5UeziIzz8t74J8Ag5z-48" target="jS5UeziIzz8t74J8Ag5z-52" edge="1">
          <mxGeometry relative="1" as="geometry" />
        </mxCell>
        <mxCell id="jS5UeziIzz8t74J8Ag5z-48" value="Endereço &amp;lt;&amp;gt; Cliente" style="rhombus;whiteSpace=wrap;html=1;strokeColor=#000000;fontSize=13;fontColor=#000000;align=center;fontStyle=1" parent="1" vertex="1">
          <mxGeometry x="66" y="1193.25" width="165" height="80" as="geometry" />
        </mxCell>
        <mxCell id="jS5UeziIzz8t74J8Ag5z-50" value="Cadastrar Novo" style="whiteSpace=wrap;html=1;fontSize=13;fontStyle=1;" parent="1" vertex="1">
          <mxGeometry x="-156.5" y="1203.25" width="120" height="60" as="geometry" />
        </mxCell>
        <mxCell id="jS5UeziIzz8t74J8Ag5z-55" style="edgeStyle=orthogonalEdgeStyle;rounded=0;orthogonalLoop=1;jettySize=auto;html=1;entryX=0;entryY=0.5;entryDx=0;entryDy=0;fontSize=13;fontColor=#000000;" parent="1" source="jS5UeziIzz8t74J8Ag5z-52" target="jS5UeziIzz8t74J8Ag5z-54" edge="1">
          <mxGeometry relative="1" as="geometry" />
        </mxCell>
        <mxCell id="jS5UeziIzz8t74J8Ag5z-57" value="" style="edgeStyle=orthogonalEdgeStyle;rounded=0;orthogonalLoop=1;jettySize=auto;html=1;fontSize=13;fontColor=#000000;" parent="1" source="jS5UeziIzz8t74J8Ag5z-52" target="jS5UeziIzz8t74J8Ag5z-56" edge="1">
          <mxGeometry relative="1" as="geometry" />
        </mxCell>
        <mxCell id="jS5UeziIzz8t74J8Ag5z-52" value="Resumo do Pedido: &lt;br&gt;Preço + Frete" style="whiteSpace=wrap;html=1;fontSize=13;fontStyle=0;fillColor=#dae8fc;strokeColor=#6c8ebf;" parent="1" vertex="1">
          <mxGeometry x="286.5" y="1363.25" width="201" height="60" as="geometry" />
        </mxCell>
        <mxCell id="jS5UeziIzz8t74J8Ag5z-54" value="&lt;p style=&quot;margin-top: 0pt ; margin-bottom: 0pt ; margin-left: 0in ; text-indent: 0in ; font-size: 14px&quot;&gt;&lt;font face=&quot;calibri&quot; style=&quot;font-size: 14px&quot;&gt;&lt;b&gt;* Tabela de Fretes do SAP (PriceCheck) - Atualização quinzenal.&lt;/b&gt;&lt;/font&gt;&lt;/p&gt;&lt;p style=&quot;margin-top: 0pt ; margin-bottom: 0pt ; margin-left: 0in ; text-indent: 0in ; font-size: 14px&quot;&gt;&lt;font face=&quot;calibri&quot; style=&quot;font-size: 14px&quot;&gt;&lt;b&gt;Origem: Código da Planta (SLZ1)&lt;/b&gt;&lt;/font&gt;&lt;/p&gt;&lt;p style=&quot;margin-top: 0pt ; margin-bottom: 0pt ; margin-left: 0in ; text-indent: 0in ; font-size: 14px&quot;&gt;&lt;font face=&quot;calibri&quot; style=&quot;font-size: 14px&quot;&gt;&lt;b&gt;Destino:&amp;nbsp; Código do Cliente&lt;/b&gt;&lt;/font&gt;&lt;/p&gt;&lt;p style=&quot;margin-top: 0pt ; margin-bottom: 0pt ; margin-left: 0in ; text-indent: 0in ; font-size: 14px&quot;&gt;&lt;font face=&quot;calibri&quot; style=&quot;font-size: 14px&quot;&gt;&lt;b&gt;SKU:&lt;/b&gt;&lt;/font&gt;&lt;/p&gt;&lt;p style=&quot;margin-top: 0pt ; margin-bottom: 0pt ; margin-left: 0in ; text-indent: 0in ; font-size: 14px&quot;&gt;&lt;font face=&quot;calibri&quot; style=&quot;font-size: 14px&quot;&gt;&lt;b&gt;Quantidade:&lt;/b&gt;&lt;/font&gt;&lt;/p&gt;" style="whiteSpace=wrap;html=1;fontStyle=0;strokeColor=#C73500;fillColor=#fa6800;fontColor=#ffffff;align=left;spacingLeft=7;" parent="1" vertex="1">
          <mxGeometry x="572" y="1341.62" width="496" height="103.25" as="geometry" />
        </mxCell>
        <mxCell id="jS5UeziIzz8t74J8Ag5z-59" value="" style="edgeStyle=orthogonalEdgeStyle;rounded=0;orthogonalLoop=1;jettySize=auto;html=1;fontSize=13;fontColor=#000000;" parent="1" source="jS5UeziIzz8t74J8Ag5z-56" target="jS5UeziIzz8t74J8Ag5z-58" edge="1">
          <mxGeometry relative="1" as="geometry" />
        </mxCell>
        <mxCell id="jS5UeziIzz8t74J8Ag5z-56" value="Fechar Pedido" style="whiteSpace=wrap;html=1;fontSize=13;fontStyle=0;strokeColor=#005700;fillColor=#008a00;fontColor=#ffffff;" parent="1" vertex="1">
          <mxGeometry x="327" y="1503.25" width="120" height="60" as="geometry" />
        </mxCell>
        <mxCell id="jS5UeziIzz8t74J8Ag5z-58" value="Meio de Pagamento:&amp;nbsp;&lt;br&gt;Gerar Boleto" style="whiteSpace=wrap;html=1;fontSize=13;fontStyle=0;strokeColor=#6c8ebf;fillColor=#dae8fc;" parent="1" vertex="1">
          <mxGeometry x="277" y="1643.25" width="220" height="60" as="geometry" />
        </mxCell>
      </root>
    </mxGraphModel>
  </diagram>
  <diagram id="F6C4VkJwRCMh--I10GQn" name="Entrega">
    <mxGraphModel dx="1117" dy="670" grid="1" gridSize="10" guides="1" tooltips="1" connect="1" arrows="1" fold="1" page="1" pageScale="1" pageWidth="850" pageHeight="1100" math="0" shadow="0">
      <root>
        <mxCell id="eeA8OCcnUGyq8BiIao9--0" />
        <mxCell id="eeA8OCcnUGyq8BiIao9--1" parent="eeA8OCcnUGyq8BiIao9--0" />
        <mxCell id="eeA8OCcnUGyq8BiIao9--5" value="" style="edgeStyle=orthogonalEdgeStyle;rounded=0;orthogonalLoop=1;jettySize=auto;html=1;fontSize=13;fontColor=#000000;" edge="1" parent="eeA8OCcnUGyq8BiIao9--1" source="eeA8OCcnUGyq8BiIao9--3" target="eeA8OCcnUGyq8BiIao9--4">
          <mxGeometry relative="1" as="geometry" />
        </mxCell>
        <mxCell id="eeA8OCcnUGyq8BiIao9--3" value="Liberar Pedido" style="rounded=0;whiteSpace=wrap;html=1;strokeColor=#6c8ebf;fontSize=13;align=center;fillColor=#dae8fc;" vertex="1" parent="eeA8OCcnUGyq8BiIao9--1">
          <mxGeometry x="110" y="80" width="120" height="60" as="geometry" />
        </mxCell>
        <mxCell id="eeA8OCcnUGyq8BiIao9--4" value="Pedidos Liberados para Transporte" style="whiteSpace=wrap;html=1;rounded=0;fontSize=13;strokeColor=#6c8ebf;fillColor=#dae8fc;" vertex="1" parent="eeA8OCcnUGyq8BiIao9--1">
          <mxGeometry x="110" y="220" width="120" height="60" as="geometry" />
        </mxCell>
        <mxCell id="eeA8OCcnUGyq8BiIao9--8" style="edgeStyle=orthogonalEdgeStyle;rounded=0;orthogonalLoop=1;jettySize=auto;html=1;entryX=1;entryY=0.5;entryDx=0;entryDy=0;fontSize=13;fontColor=#000000;" edge="1" parent="eeA8OCcnUGyq8BiIao9--1" source="eeA8OCcnUGyq8BiIao9--6" target="eeA8OCcnUGyq8BiIao9--3">
          <mxGeometry relative="1" as="geometry" />
        </mxCell>
        <mxCell id="eeA8OCcnUGyq8BiIao9--6" value="Proceso de Conciliação bancária automática" style="rounded=0;whiteSpace=wrap;html=1;strokeColor=#C73500;fontSize=13;align=center;fillColor=#fa6800;fontColor=#ffffff;" vertex="1" parent="eeA8OCcnUGyq8BiIao9--1">
          <mxGeometry x="310" y="80" width="200" height="60" as="geometry" />
        </mxCell>
        <mxCell id="eeA8OCcnUGyq8BiIao9--10" style="edgeStyle=orthogonalEdgeStyle;rounded=0;orthogonalLoop=1;jettySize=auto;html=1;fontSize=13;fontColor=#000000;" edge="1" parent="eeA8OCcnUGyq8BiIao9--1" source="eeA8OCcnUGyq8BiIao9--9" target="eeA8OCcnUGyq8BiIao9--4">
          <mxGeometry relative="1" as="geometry" />
        </mxCell>
        <mxCell id="eeA8OCcnUGyq8BiIao9--13" value="" style="edgeStyle=orthogonalEdgeStyle;rounded=0;orthogonalLoop=1;jettySize=auto;html=1;fontSize=13;fontColor=#000000;" edge="1" parent="eeA8OCcnUGyq8BiIao9--1" source="eeA8OCcnUGyq8BiIao9--9" target="eeA8OCcnUGyq8BiIao9--12">
          <mxGeometry relative="1" as="geometry" />
        </mxCell>
        <mxCell id="eeA8OCcnUGyq8BiIao9--9" value="PA" style="whiteSpace=wrap;html=1;rounded=1;fontSize=13;strokeColor=#36393d;fillColor=#cdeb8b;" vertex="1" parent="eeA8OCcnUGyq8BiIao9--1">
          <mxGeometry x="320" y="220" width="120" height="60" as="geometry" />
        </mxCell>
        <mxCell id="eeA8OCcnUGyq8BiIao9--15" value="" style="edgeStyle=orthogonalEdgeStyle;rounded=0;orthogonalLoop=1;jettySize=auto;html=1;fontSize=13;fontColor=#000000;" edge="1" parent="eeA8OCcnUGyq8BiIao9--1" source="eeA8OCcnUGyq8BiIao9--12" target="eeA8OCcnUGyq8BiIao9--14">
          <mxGeometry relative="1" as="geometry" />
        </mxCell>
        <mxCell id="eeA8OCcnUGyq8BiIao9--12" value="Criação do Transporte" style="whiteSpace=wrap;html=1;rounded=0;fontSize=13;strokeColor=#6c8ebf;fillColor=#dae8fc;" vertex="1" parent="eeA8OCcnUGyq8BiIao9--1">
          <mxGeometry x="320" y="330" width="120" height="60" as="geometry" />
        </mxCell>
        <mxCell id="eeA8OCcnUGyq8BiIao9--14" value="Carregamento" style="whiteSpace=wrap;html=1;rounded=0;fontSize=13;strokeColor=#6c8ebf;fillColor=#dae8fc;" vertex="1" parent="eeA8OCcnUGyq8BiIao9--1">
          <mxGeometry x="320" y="440" width="120" height="60" as="geometry" />
        </mxCell>
      </root>
    </mxGraphModel>
  </diagram>
</mxfile>
